<svg xmlns="http://www.w3.org/2000/svg" viewBox="0 0 1205.35 210"><title>logo-white</title><path d="M141.89,62.15a46.53,46.53,0,0,0-16.17-10.92,55.73,55.73,0,0,0-21.29-3.84,54.27,54.27,0,0,0-21.71,4.12,43.29,43.29,0,0,0-16,11.78,52.35,52.35,0,0,0-9.93,18.3A76.53,76.53,0,0,0,53.35,105q0,26.12,13.34,41.86t37.74,15.75a55.47,55.47,0,0,0,22.71-4.4,43.87,43.87,0,0,0,16.45-12.34l33.77,38.88a95,95,0,0,1-32.06,18.73A121,121,0,0,1,104.72,210q-23.56,0-42.86-7.52A93.79,93.79,0,0,1,28.8,181.06,96.24,96.24,0,0,1,7.52,147.85Q0,128.56,0,104.72,0,81.17,7.52,61.87A92.55,92.55,0,0,1,62,7.52Q81.43,0,105,0q23,0,42,7.1a94.9,94.9,0,0,1,32.92,20.43Z" style="fill:#fff"/><path d="M212.06,210V118.8l54.6-50.4h93.6V0h57.9V210h-57.6V118.5h-90.9V210Z" style="fill:#fff"/><path d="M475.76,100.2h88.8L536.36,0h59.7l59.1,210h-60l-16.8-59.7h-56.7L504.86,210h-59.7Z" style="fill:#fff"/><path d="M682.16,210V0h57.9V88.8l72-88.8h64.5l-67.8,83.7L888,210h-58.8l-53.7-85.5-35.4,43.8V210Z" style="fill:#fff"/><path d="M915,210V0h57.9V88.8l72-88.8h64.5l-67.8,83.7,79.2,126.3H1062l-53.7-85.5-35.4,43.8V210Z" style="fill:#fff"/><path d="M1147.75,210V0h57.6V210Z" style="fill:#fff"/></svg>